<?xml version="1.0" standalone="no"?>
<!DOCTYPE svg PUBLIC "-//W3C//DTD SVG 20010904//EN"
 "http://www.w3.org/TR/2001/REC-SVG-20010904/DTD/svg10.dtd">
<svg version="1.0" xmlns="http://www.w3.org/2000/svg"
 width="800.000000pt" height="800.000000pt" viewBox="0 0 800.000000 800.000000"
 preserveAspectRatio="xMidYMid meet">
<metadata>
Created by potrace 1.14, written by Peter Selinger 2001-2017
</metadata>
<g transform="translate(0.000000,800.000000) scale(0.100000,-0.100000)"
fill="#000000" stroke="none">
<path d="M3287 6477 c25 -65 91 -207 119 -254 13 -24 24 -46 23 -49 0 -4 3
-10 8 -13 11 -7 73 -97 73 -105 0 -6 7 -14 58 -70 12 -14 22 -28 22 -31 0 -3
24 -30 54 -60 29 -30 51 -57 48 -60 -3 -3 0 -5 7 -5 7 0 28 -16 47 -36 19 -20
34 -34 34 -31 0 5 39 -26 90 -73 15 -14 33 -26 41 -28 7 -2 19 -12 27 -23 7
-11 17 -17 22 -14 4 3 10 2 12 -2 1 -5 20 -21 41 -37 21 -15 36 -30 33 -33 -3
-3 -36 -7 -73 -9 -86 -4 -206 -15 -214 -20 -3 -2 -21 -6 -40 -9 -19 -3 -52
-11 -74 -17 -22 -5 -44 -11 -50 -13 -15 -3 -43 -14 -125 -48 -109 -45 -215
-110 -280 -170 -8 -8 -22 -13 -30 -11 -8 2 -28 6 -45 9 -16 3 -36 8 -44 11 -8
2 -30 7 -50 10 -20 3 -47 7 -61 10 -99 16 -300 22 -422 12 -96 -8 -165 -18
-284 -42 -35 -7 -166 -46 -205 -61 -20 -8 -39 -11 -43 -8 -3 4 -6 1 -6 -5 0
-7 -6 -12 -13 -12 -7 0 -33 -10 -57 -21 -24 -12 -49 -22 -54 -23 -10 -2 -78
-36 -156 -78 -14 -7 -40 -23 -58 -36 -17 -13 -32 -20 -32 -15 0 4 -6 1 -13 -7
-15 -18 -45 -38 -69 -46 -10 -4 -18 -10 -18 -15 0 -5 -13 -15 -30 -24 -16 -8
-39 -25 -50 -37 l-20 -22 72 -29 c79 -31 266 -82 338 -92 25 -3 72 -9 105 -14
120 -18 333 -8 519 24 60 10 68 12 116 25 25 7 50 13 55 15 6 1 17 5 25 8 8 3
42 14 75 26 33 11 76 26 96 35 40 17 58 10 53 -19 -6 -29 -4 -202 1 -252 4
-34 2 -43 -10 -43 -8 0 -15 -4 -15 -9 0 -6 -9 -8 -20 -6 -11 2 -22 0 -25 -4
-2 -5 -22 -12 -42 -17 -43 -8 -43 -8 -63 -17 -8 -4 -24 -8 -35 -10 -11 -2 -32
-9 -48 -15 -15 -7 -38 -14 -50 -16 -12 -2 -53 -16 -92 -31 -38 -15 -70 -26
-70 -25 0 2 -50 -16 -75 -27 -8 -3 -17 -7 -20 -7 -8 -2 -72 -27 -107 -42 -17
-8 -36 -14 -42 -14 -6 0 -11 -4 -11 -8 0 -4 -10 -8 -21 -9 -12 -1 -29 -9 -38
-17 -10 -9 -23 -16 -29 -16 -11 0 -152 -70 -162 -80 -3 -3 -24 -14 -47 -25
-24 -11 -43 -23 -43 -27 0 -5 -4 -8 -9 -8 -6 0 -30 -13 -54 -30 -25 -16 -50
-30 -56 -30 -6 0 -11 -4 -11 -8 0 -5 -12 -15 -27 -23 -16 -8 -33 -18 -39 -24
-6 -5 -22 -17 -34 -25 -67 -45 -70 -49 -64 -93 9 -69 54 -270 81 -362 25 -83
80 -247 98 -290 36 -87 47 -111 56 -125 16 -26 32 -65 31 -72 -1 -5 2 -8 7 -8
5 0 14 -13 21 -29 18 -44 48 -73 63 -61 7 6 50 39 97 74 47 36 92 71 101 79 9
8 20 16 25 18 25 11 84 52 84 58 0 3 16 15 35 25 19 11 35 23 35 28 0 4 6 8
14 8 7 0 25 11 40 25 14 13 26 22 26 19 0 -6 89 54 108 73 8 7 17 11 22 8 4
-3 10 2 14 10 3 8 12 15 21 15 8 0 15 5 15 10 0 6 6 10 14 10 8 0 22 8 32 18
10 9 20 17 23 17 3 0 31 16 61 36 30 19 62 38 70 42 8 4 33 18 55 32 22 14 56
32 75 42 19 9 38 21 41 26 3 5 9 9 13 10 11 3 28 -32 21 -43 -3 -5 -8 -18 -10
-27 -2 -10 -10 -38 -18 -63 -17 -52 -43 -144 -51 -180 -3 -14 -19 -86 -35
-160 -38 -174 -46 -241 -31 -250 6 -4 68 -5 137 -2 112 4 128 3 139 -13 8 -10
10 -24 5 -34 -24 -46 -45 -97 -46 -106 0 -5 -6 -16 -13 -23 -7 -8 -10 -17 -7
-22 3 -5 1 -10 -3 -12 -12 -4 -83 -148 -74 -148 4 0 2 -4 -4 -8 -21 -15 -58
-112 -68 -180 -5 -34 -11 -36 -58 -18 -56 23 -104 15 -112 -20 -4 -14 -11 -22
-16 -19 -14 9 -27 -25 -33 -90 -5 -52 -3 -67 21 -115 41 -81 73 -130 85 -130
6 0 7 -3 4 -6 -15 -15 160 -198 258 -269 22 -17 42 -32 45 -35 14 -15 110 -81
110 -75 0 3 10 -3 22 -14 11 -11 25 -18 30 -15 4 3 8 1 8 -5 0 -8 37 -26 50
-23 3 1 14 -5 26 -13 32 -20 137 -15 163 9 12 11 21 27 21 37 0 22 8 27 56 35
22 3 46 10 55 15 9 4 19 5 23 2 3 -3 6 -1 6 6 0 7 4 10 8 7 4 -2 21 1 37 9 37
17 238 84 262 88 10 1 23 5 28 8 9 6 77 23 135 34 31 7 146 22 225 30 95 11
302 13 390 5 190 -18 234 -28 249 -55 20 -35 39 -50 70 -53 34 -4 106 16 106
30 0 4 3 7 8 6 10 -4 112 63 112 74 0 4 6 8 13 8 7 0 51 36 96 80 46 44 81 80
78 80 -2 0 13 19 34 42 21 24 46 56 54 73 8 16 15 26 15 20 0 -5 6 1 13 15 24
46 42 74 55 88 7 7 10 18 7 23 -4 5 -1 9 6 9 7 0 10 3 6 6 -3 3 5 24 19 45 13
21 22 39 19 39 -3 0 2 14 11 31 31 60 41 140 21 161 -9 8 -17 35 -19 59 -3 41
-5 44 -33 45 -16 0 -40 4 -52 8 -12 4 -31 2 -42 -3 -23 -13 -51 -5 -51 14 0
21 -42 115 -51 115 -5 0 -9 5 -9 12 0 11 -67 79 -118 120 -11 9 -47 26 -80 38
-60 22 -61 23 -87 88 -36 90 -37 112 -9 140 13 12 24 20 24 17 0 -3 17 14 38
37 20 24 39 45 42 48 3 3 27 32 53 65 26 33 52 66 58 73 6 7 16 23 23 35 19
37 50 82 61 89 5 4 6 8 2 8 -4 0 5 19 20 43 16 23 44 71 62 107 19 36 42 80
53 98 11 17 17 32 14 32 -4 0 0 10 9 23 8 13 12 27 8 30 -3 4 -1 7 5 7 6 0 13
13 17 30 4 16 11 32 16 35 5 4 9 12 9 20 0 8 5 26 11 42 6 15 10 29 10 31 -1
1 5 18 13 37 8 19 13 35 11 35 -1 0 3 20 10 44 8 24 11 47 8 50 -4 3 -1 6 5 6
7 0 11 3 10 8 -3 9 10 49 29 91 14 32 14 35 -2 47 -12 9 -16 22 -13 39 4 20 0
30 -18 42 -13 8 -24 22 -24 30 0 8 -13 20 -30 26 -27 10 -36 28 -31 60 1 4
-24 5 -55 1 -51 -6 -59 -4 -74 16 -12 16 -22 20 -43 15 -15 -4 -27 -11 -27
-17 0 -5 -4 -7 -9 -4 -5 3 -14 -1 -21 -9 -7 -8 -16 -12 -21 -9 -5 3 -9 0 -9
-5 0 -6 -6 -11 -13 -11 -7 0 -22 -8 -33 -17 -11 -10 -26 -19 -34 -21 -8 -2
-18 -8 -21 -14 -3 -5 -9 -9 -13 -9 -3 1 -30 -14 -59 -32 -73 -47 -85 -50 -97
-27 -6 11 -8 20 -5 20 3 0 -21 53 -54 118 -57 115 -85 181 -90 215 0 4 -8 21
-16 37 -8 16 -15 32 -15 35 0 3 0 6 -1 8 -1 4 -8 31 -28 107 -42 163 -52 197
-74 245 -12 28 -25 52 -29 53 -5 2 -8 8 -8 14 0 5 -18 28 -41 50 -27 27 -47
60 -59 97 -11 31 -31 83 -46 116 -15 33 -28 62 -29 65 -8 26 -26 59 -35 65 -5
3 -8 11 -5 16 4 5 1 9 -6 9 -7 0 -10 3 -6 6 3 4 1 12 -6 20 -30 33 -37 44 -31
44 4 0 -2 10 -13 23 -11 12 -22 27 -24 32 -11 26 -52 85 -60 85 -5 0 -9 4 -9
10 0 5 -26 37 -58 70 -32 33 -57 62 -55 63 1 2 -8 10 -22 17 -13 7 -27 20 -30
29 -3 9 -20 26 -37 38 -18 12 -47 35 -63 50 -49 45 -204 147 -290 192 -44 22
-85 45 -92 51 -7 5 -17 10 -23 10 -6 0 -18 4 -28 9 -30 15 -97 42 -112 44 -8
2 -20 6 -26 10 -20 12 -211 57 -263 62 l-50 4 16 -42z"/>
</g>
</svg>
